<svg width="40" height="36" viewBox="0 0 40 36" fill="none" xmlns="http://www.w3.org/2000/svg">
<path d="M17.9041 35.7945C15.1234 35.7956 12.3807 35.1487 9.89359 33.9052C7.40645 32.6616 5.24327 30.8557 3.57564 28.6305C1.90802 26.4054 0.781818 23.8223 0.286373 21.0861C-0.209072 18.3499 -0.060133 15.5359 0.721378 12.8672C1.50289 10.1986 2.89547 7.74884 4.78867 5.71216C6.68186 3.67548 9.02359 2.10796 11.6281 1.13392C14.2326 0.159883 17.0283 -0.193869 19.7933 0.100723C22.5584 0.395314 25.2167 1.33014 27.5576 2.83106C27.8204 3.0104 28.003 3.28521 28.0664 3.59706C28.1298 3.90891 28.069 4.23319 27.897 4.50093C27.725 4.76867 27.4554 4.95875 27.1454 5.03074C26.8354 5.10274 26.5096 5.05097 26.2372 4.88644C23.3465 3.03532 19.9218 2.19923 16.5033 2.51007C13.0848 2.8209 9.86712 4.26096 7.35773 6.60309C4.84833 8.94522 3.19008 12.0561 2.64454 15.4451C2.09901 18.834 2.69725 22.3082 4.34488 25.3195C5.99252 28.3308 8.59579 30.7079 11.744 32.0758C14.8923 33.4437 18.4064 33.7245 21.7319 32.8741C25.0575 32.0236 28.0053 30.0902 30.1103 27.3788C32.2153 24.6675 33.3578 21.3325 33.3575 17.8999C33.3575 17.3906 33.3326 16.8853 33.2853 16.3905C33.2611 16.2266 33.2704 16.0595 33.3128 15.8994C33.3551 15.7393 33.4296 15.5894 33.5316 15.4589C33.6337 15.3284 33.7612 15.2201 33.9064 15.1404C34.0517 15.0607 34.2116 15.0114 34.3765 14.9955C34.5414 14.9795 34.7078 14.9973 34.8656 15.0476C35.0234 15.098 35.1693 15.1799 35.2945 15.2884C35.4197 15.3969 35.5215 15.5298 35.5937 15.6788C35.6659 15.8279 35.7071 15.9901 35.7147 16.1556C35.7699 16.7296 35.7974 17.3114 35.7974 17.9012C35.7912 22.6449 33.904 27.1925 30.5497 30.5468C27.1954 33.9011 22.6478 35.7882 17.9041 35.7945Z" fill="#00BAFF"/>
<path d="M19.9357 21.9673C19.7757 21.9676 19.6172 21.9362 19.4695 21.875C19.3217 21.8137 19.1875 21.7238 19.0747 21.6103L11.7535 14.2892C11.6308 14.1781 11.5319 14.0432 11.4628 13.8927C11.3938 13.7422 11.3561 13.5792 11.3519 13.4137C11.3478 13.2481 11.3774 13.0835 11.4388 12.9297C11.5003 12.7759 11.5924 12.6363 11.7095 12.5192C11.8266 12.4021 11.9662 12.31 12.12 12.2486C12.2737 12.1871 12.4384 12.1575 12.6039 12.1617C12.7695 12.1658 12.9324 12.2035 13.0829 12.2726C13.2335 12.3416 13.3684 12.4405 13.4795 12.5633L19.9383 19.0221L36.9706 1.98978C37.2031 1.77938 37.5075 1.6664 37.821 1.67421C38.1344 1.68202 38.4329 1.81002 38.6546 2.03173C38.8763 2.25344 39.0043 2.55189 39.0121 2.86534C39.0199 3.17879 38.9069 3.48324 38.6965 3.71572L20.8059 21.6103C20.5764 21.8386 20.2658 21.9665 19.9422 21.966L19.9357 21.9673Z" fill="#00BAFF"/>
</svg>
