<svg width="29" height="30" viewBox="0 0 29 30" fill="none" xmlns="http://www.w3.org/2000/svg">
<path d="M24.7526 1.91826L1.41812 25.2528C0.637071 26.0338 0.637071 27.3002 1.41812 28.0812C2.19917 28.8623 3.4655 28.8623 4.24655 28.0812L27.5811 4.74668C28.3621 3.96563 28.3621 2.6993 27.5811 1.91826C26.8 1.13721 25.5337 1.13721 24.7526 1.91826Z" fill="black"/>
<path d="M27.5808 25.2537L4.24624 1.91922C3.4652 1.13817 2.19887 1.13817 1.41782 1.91922C0.636769 2.70027 0.636769 3.9666 1.41782 4.74765L24.7523 28.0822C25.5334 28.8632 26.7997 28.8632 27.5808 28.0822C28.3618 27.3011 28.3618 26.0348 27.5808 25.2537Z" fill="black"/>
</svg>
