<svg xmlns="http://www.w3.org/2000/svg" viewBox="0 0 888.01 1023.65"><defs><style>.cls-1{fill:#fff;}</style></defs><g id="Layer_2" data-name="Layer 2"><g id="Layer_1-2" data-name="Layer 1"><path class="cls-1" d="M884.56,394.14c4.83,29.85,4.34,66.36-7.12,109.93-.64,2.5-1.62,5.31-2.26,7.81-.4,1.8-1,3.46-1.48,5.06C855.47,579.9,834,654.32,815,720.88c-5.86,20.43-11.53,40-16.85,58.35A218.31,218.31,0,0,1,642.44,930L292.3,1019.17a144,144,0,0,1-138.67-38.95,20.12,20.12,0,0,1-2.87-2.89l-23.82-25.86-61.32-66.1-.3-.35.2,0c1.65-1.06,12.37-7.41,30.08-18.09l8.13-4.84,18.11-10.78,7.59-4.49L174.52,820l17.22-10.13,18.1-10.78L231.1,786.4c109-65,254.77-151.94,383.63-229.24l.1.4,20.4-12.65,9.43-5.59c50.58-30.34,97.83-58.76,138.23-83.1C826,430.12,861.61,408.5,884.56,394.14Z"/><path class="cls-1" d="M635.25,545l-20.34,12.46-.08-.32C621.77,553.18,628.51,549.09,635.25,545Z"/><path class="cls-1" d="M674.57,137.68,450.52,265.89,123.65,453.06l115-140a.43.43,0,0,0,.22-.2l.1-.16,26.36-32.11.29-.48,82.74-100.82,7.82-9.5,48.17-58.56,33.64-41.07,1.24-1.55.13,0c37-45.19,101.47-52.47,147.48-20.36a120.29,120.29,0,0,1,11,8.81l0,.13c1.81,1.72,3.61,3.45,5.45,5.3l30,31.67Z"/><path class="cls-1" d="M882.14,380.94c.91,4.06,1.76,8.39,2.37,12.78l.12.47c-23.11,14.35-58.53,35.87-101.7,62.14a.88.88,0,0,1-.24-.44.94.94,0,0,1-.24-.45l-137.81,84L635.2,545c-6.66,4.09-13.44,8.22-20.4,12.13l-.11,0-5.72-10L456.44,276.39l-5.95-10.47,96.31-55.09,25.37-14.41,34.48-19.77,68-38.9L840.8,298.93s1.67,1.6,4.38,4.82C853.65,313.71,872.85,339.5,882.14,380.94Z"/><path class="cls-1" d="M635.25,545l-20.34,12.46-.08-.32C621.77,553.18,628.51,549.09,635.25,545Z"/><path class="cls-1" d="M530.57,15.15C482.63,8.11,446.3,37,427.15,61.56c-13.5,17.23-97.66,121.56-146.37,181.75a141.25,141.25,0,0,1-15.21,36.79L239,312.4l-.83,1L145.3,426.52l-21.68,26.42L32.73,299.81,18.86,276.44S18.15,275.26,17,273c-.77-1.44-1.68-3.39-2.78-5.57a119.5,119.5,0,0,1-9.55-24.6A8.73,8.73,0,0,1,4.1,241l-.17-.64C-12.7,174,24.6,102.79,93.09,81.12c2.53-.79,5-1.41,7.53-2.06L395.8,3.87s1-.26,3.23-.69a26,26,0,0,0,4-.46C422.09-.1,476.08-5.25,530.57,15.15Z"/><path class="cls-1" d="M875.22,511.85l-21.48,74.28L798.13,779.19S768.74,897.77,642.48,929.93l-41.85,10.66A163.71,163.71,0,0,1,475.54,641.81L884.63,394.19S896.7,437.58,875.22,511.85Z"/><path class="cls-1" d="M422.59,857.68a124.6,124.6,0,0,1-89.92,151.55l-40.4,9.91c-84.21,20.82-138.68-38.91-138.68-38.91L65.66,885.35l165.87-99.7,1.19-.8a122.61,122.61,0,0,1,38.44-17.12A124.58,124.58,0,0,1,422.59,857.68Z"/><path class="cls-1" d="M108.83,77C34.07,96-11.88,169.71,4.68,242.78c.17,1.18.5,2.46.79,3.62a135.78,135.78,0,0,0,27.26,53.41,131.3,131.3,0,0,0,12,12.65,422,422,0,0,1-17.89-46.1,116.24,116.24,0,0,1-8.51-23.23,122.67,122.67,0,0,1-2.68-46.42.52.52,0,0,1,0-.42,26.83,26.83,0,0,1,.47-3,7.17,7.17,0,0,1,.19-1.41c.06-.29.13-.58.19-.87,8.55-47.37,44.82-88.29,95.6-101.23C181,72.25,250.74,112.51,267.82,179.57c9.86,38.73,0,78.12-23.33,107.81a62,62,0,0,1-4.73,5.57l-1.24,1.55-34.45,41.68a144.14,144.14,0,0,0,34.08-22.75c.13,0,.22-.19.45-.38a.43.43,0,0,0,.22-.2l.1-.16a119.54,119.54,0,0,0,12.3-12.83l4.31-5.05,0-.13a115.79,115.79,0,0,0,9.79-14.1l.29-.48a141.25,141.25,0,0,0,15.21-36.79,136.81,136.81,0,0,0-.14-67C261.73,102.06,184.86,57.6,108.83,77Z"/><path class="cls-1" d="M597.77,57a120.29,120.29,0,0,0-11-8.81c-45.85-32-110.39-24.86-147.48,20.36l-.13,0-1.24,1.55L404.3,111.22l-48.17,58.56-7.82,9.5L265.57,280.1a141.25,141.25,0,0,0,15.21-36.79C329.49,183.12,413.65,78.79,427.15,61.56,446.3,37,482.63,8.11,530.57,15.15l.13,0A190.42,190.42,0,0,1,597.77,57Z"/><polygon class="cls-1" points="255.49 294.68 255.53 294.81 251.22 299.86 123.62 452.94 116.9 441.54 204.07 336.18 238.52 294.5 239.76 292.95 244.49 287.38 255.49 294.68"/><polygon class="cls-1" points="20.14 281.93 61.67 348.57 44.69 312.46 20.14 281.93"/></g></g></svg>