<svg xmlns="http://www.w3.org/2000/svg" viewBox="0 0 7463.75 1023.65"><defs><style>.cls-1{fill:#fff;}.cls-2{fill:#a6a6ff;}.cls-3{fill:#500084;}.cls-4{fill:#6b40f2;}.cls-5{fill:#481196;}.cls-6{fill:#652399;}.cls-7{fill:#bbf;}</style></defs><g id="Layer_2" data-name="Layer 2"><g id="Layer_1-2" data-name="Layer 1"><path class="cls-1" d="M1265.38,150.84h283.11q110.27,0,194.69,44.22t131.13,123.16q46.67,79,46.69,180.31t-46.69,180.29q-46.71,79-131.13,123.17t-194.69,44.2H1265.38Zm279.13,631.78q91.4,0,159.93-36.26T1810.74,646q37.74-64.1,37.74-147.51T1810.74,351q-37.77-64.06-106.3-100.32t-159.93-36.26H1338.89v568.2Z"/><path class="cls-1" d="M2410.72,370.87q54.62,51.18,54.63,151.49V846.19h-67.56V764.73q-23.82,40.77-70,63.58T2218,851.16q-87.42,0-139.07-41.72t-51.66-110.26q0-66.55,48.18-107.29t153.47-40.72h165.9V519.38q0-67.53-37.75-102.8T2246.81,381.3a280.29,280.29,0,0,0-95.36,16.39q-45.7,16.4-78.48,45.2l-31.78-52.65q39.72-33.75,95.36-52.15t117.21-18.38Q2356.06,319.71,2410.72,370.87Zm-79.48,397.34q42.71-27.29,63.58-79V603.82h-163.9q-134.11,0-134.11,93.37,0,45.7,34.77,72t97.34,26.32Q2288.53,795.53,2331.24,768.21Z"/><path class="cls-1" d="M3025.59,787.59v58.6H2600.44V799.52l328.8-416.23H2606.4V323.68h413.24v46.7l-328.8,417.21Z"/><path class="cls-1" d="M3587.33,376.84q58.11,57.12,58.11,166.38v303h-70.53v-296q0-81.42-40.73-124.16T3418,383.29q-84.43,0-133.61,50.17T3235.18,572V846.19h-70.53V109.12h70.53v306q28.8-45.66,79.47-70.53t116.23-24.84Q3529.22,319.71,3587.33,376.84Z"/><path class="cls-1" d="M4239.45,353q59.6,33.27,93.37,93.86t33.78,138.08q0,77.49-33.78,138.07t-93.37,94.37q-59.59,33.79-133.11,33.78-65.57,0-117.72-27.8t-83.93-80.48V846.19h-67.55V109.12h70.53V423q32.77-50.64,83.94-77t114.73-26.34Q4179.84,319.71,4239.45,353Zm-38.74,410.26q44.7-25.35,70-72t25.33-106.3q0-59.61-25.33-106.28t-70-72q-44.7-25.32-99.34-25.33-55.65,0-99.83,25.33t-69.53,72q-25.34,46.71-25.34,106.28T3932,691.24q25.32,46.71,69.53,72t99.83,25.33Q4156,788.59,4200.71,763.26Z"/><path class="cls-1" d="M4588.11,816.89A249.82,249.82,0,0,1,4492.75,722Q4458,661.45,4458,584.94t34.77-137.08q34.76-60.58,95.36-94.37t136.09-33.78q75.48,0,136.09,33.78a243,243,0,0,1,94.86,94.37q34.28,60.6,34.28,137.08T4955.15,722a246.36,246.36,0,0,1-94.86,94.86q-60.61,34.29-136.09,34.27T4588.11,816.89ZM4824,763.26q44.19-25.35,69-72t24.83-106.3q0-59.61-24.83-106.28t-69-72q-44.2-25.32-99.83-25.33t-99.83,25.33q-44.22,25.33-69.54,72T4529.5,584.94q0,59.59,25.33,106.3t69.54,72q44.19,25.32,99.83,25.33T4824,763.26Z"/><path class="cls-1" d="M5470.22,370.87q54.63,51.18,54.64,151.49V846.19H5457.3V764.73q-23.84,40.77-70,63.58t-109.76,22.85q-87.42,0-139.07-41.72t-51.66-110.26q0-66.55,48.18-107.29t153.47-40.72h165.9V519.38q0-67.53-37.76-102.8T5306.32,381.3A280.38,280.38,0,0,0,5211,397.69q-45.69,16.4-78.47,45.2l-31.78-52.65q39.71-33.75,95.36-52.15t117.21-18.38Q5415.57,319.71,5470.22,370.87Zm-79.47,397.34q42.69-27.29,63.58-79V603.82h-163.9q-134.11,0-134.11,93.37,0,45.7,34.77,72t97.34,26.32Q5348,795.53,5390.75,768.21Z"/><path class="cls-1" d="M5858.12,346.54q49.17-26.84,121.68-26.83v68.55l-16.88-1q-82.47,0-129.14,50.66T5787.09,580V846.19h-70.53V323.68h67.56V426Q5808.93,373.38,5858.12,346.54Z"/><path class="cls-1" d="M6578.81,109.12V846.19h-67.56V742.88q-31.78,52.67-83.93,80.48t-117.72,27.8q-73.52,0-133.11-33.78T6083.12,723q-33.78-60.56-33.78-138.07t33.78-138.08q33.75-60.56,93.37-93.86t133.11-33.29q63.57,0,114.73,26.34t83.95,77V109.12ZM6414.4,763.26q44.19-25.35,69.54-72t25.33-106.3q0-59.61-25.33-106.28t-69.54-72q-44.22-25.32-98.83-25.33-55.65,0-99.83,25.33t-69.54,72q-25.33,46.71-25.33,106.28t25.33,106.3q25.34,46.71,69.54,72t99.83,25.33Q6370.19,788.59,6414.4,763.26Z"/><path class="cls-1" d="M6793.86,832.79q-58.11-18.39-90.9-46.2L6734.75,731q32.79,25.85,82.45,42.21a327.43,327.43,0,0,0,103.31,16.39q71.52,0,105.8-22.34t34.26-63.08q0-28.8-18.87-45.2T6994,634.11q-28.82-8.42-76.49-16.39-63.57-11.91-102.32-24.33a150.29,150.29,0,0,1-66.06-42.22q-27.33-29.79-27.31-82.45,0-65.57,54.63-107.29t152-41.72a394.57,394.57,0,0,1,101.32,13.42q50.67,13.42,83.44,35.26L7082.42,425q-64.58-44.68-154-44.69-67.57,0-101.82,23.84t-34.27,62.57q0,29.81,19.37,47.68t48.17,26.33q28.82,8.44,79.47,17.39Q7002,570,7039.71,582a147.42,147.42,0,0,1,64.58,40.72q26.8,28.81,26.81,79.47,0,68.54-57.12,108.78t-158.43,40.22A400.83,400.83,0,0,1,6793.86,832.79Z"/><circle class="cls-2" cx="7345.86" cy="736.36" r="117.89"/><path class="cls-3" d="M884.56,394.14c4.83,29.85,4.34,66.36-7.12,109.93-.64,2.5-1.62,5.31-2.26,7.81-.4,1.8-1,3.46-1.48,5.06C855.47,579.9,834,654.32,815,720.88c-5.86,20.43-11.53,40-16.85,58.35A218.31,218.31,0,0,1,642.44,930L292.3,1019.17a144,144,0,0,1-138.67-38.95,20.12,20.12,0,0,1-2.87-2.89l-23.82-25.86-61.32-66.1-.3-.35.2,0c1.65-1.06,12.37-7.41,30.08-18.09l8.13-4.84,18.11-10.78,7.59-4.49L174.52,820l17.22-10.13,18.1-10.78L231.1,786.4c109-65,254.77-151.94,383.63-229.24l.1.4,20.4-12.65,9.43-5.59c50.58-30.34,97.83-58.76,138.23-83.1C826,430.12,861.61,408.5,884.56,394.14Z"/><path class="cls-3" d="M635.25,545l-20.34,12.46-.08-.32C621.77,553.18,628.51,549.09,635.25,545Z"/><path class="cls-4" d="M674.57,137.68,450.52,265.89,123.65,453.06l115-140a.43.43,0,0,0,.22-.2l.1-.16,26.36-32.11.29-.48,82.74-100.82,7.82-9.5,48.17-58.56,33.64-41.07,1.24-1.55.13,0c37-45.19,101.47-52.47,147.48-20.36a120.29,120.29,0,0,1,11,8.81l0,.13c1.81,1.72,3.61,3.45,5.45,5.3l30,31.67Z"/><path class="cls-5" d="M882.14,380.94c.91,4.06,1.76,8.39,2.37,12.78l.12.47c-23.11,14.35-58.53,35.87-101.7,62.14a.88.88,0,0,1-.24-.44.94.94,0,0,1-.24-.45l-137.81,84L635.2,545c-6.66,4.09-13.44,8.22-20.4,12.13l-.11,0-5.72-10L456.44,276.39l-5.95-10.47,96.31-55.09,25.37-14.41,34.48-19.77,68-38.9L840.8,298.93s1.67,1.6,4.38,4.82C853.65,313.71,872.85,339.5,882.14,380.94Z"/><path class="cls-5" d="M635.25,545l-20.34,12.46-.08-.32C621.77,553.18,628.51,549.09,635.25,545Z"/><path class="cls-2" d="M530.57,15.15C482.63,8.11,446.3,37,427.15,61.56c-13.5,17.23-97.66,121.56-146.37,181.75a141.25,141.25,0,0,1-15.21,36.79L239,312.4l-.83,1L145.3,426.52l-21.68,26.42L32.73,299.81,18.86,276.44S18.15,275.26,17,273c-.77-1.44-1.68-3.39-2.78-5.57a119.5,119.5,0,0,1-9.55-24.6A8.73,8.73,0,0,1,4.1,241l-.17-.64C-12.7,174,24.6,102.79,93.09,81.12c2.53-.79,5-1.41,7.53-2.06L395.8,3.87s1-.26,3.23-.69a26,26,0,0,0,4-.46C422.09-.1,476.08-5.25,530.57,15.15Z"/><path class="cls-6" d="M884,395.75c.78,3.44,2.75,13.61,3,29.54.29,18.28-1.68,48.09-12.72,86.29l-21.48,74.27L797.16,779c-.08.29-7.59,29.91-30.37,63a217.88,217.88,0,0,1-47.37,50A213.05,213.05,0,0,1,642.24,929l-41.85,10.66A162.69,162.69,0,0,1,402.45,822.16a162.73,162.73,0,0,1,73.61-179.49L884,395.75m.65-1.56L475.54,641.81A163.7,163.7,0,0,0,600.63,940.59l41.85-10.66c126.26-32.16,155.65-150.74,155.65-150.74l55.61-193.06,21.48-74.28c21.48-74.27,9.41-117.66,9.41-117.66Z"/><path class="cls-6" d="M302,764.85a124.23,124.23,0,0,1,75.16,25.59,123.62,123.62,0,0,1-44.7,217.82l-40.4,9.91a147.1,147.1,0,0,1-35.21,4.38c-32.66,0-58.78-11.68-74.94-21.48-17.53-10.63-27.46-21.4-27.56-21.52l-87.09-94,164.82-99.06,0,0h0l1.18-.81a121.43,121.43,0,0,1,38.12-17A124.15,124.15,0,0,1,302,764.85h0m0-1a124.88,124.88,0,0,0-30.8,3.88,122.61,122.61,0,0,0-38.44,17.12l-1.19.8L65.66,885.35l87.93,94.88s39.5,43.32,103.23,43.32a147.23,147.23,0,0,0,35.45-4.41l40.4-9.91A124.63,124.63,0,0,0,302,763.85Z"/><path class="cls-7" d="M108.83,77C34.07,96-11.88,169.71,4.68,242.78c.17,1.18.5,2.46.79,3.62a135.78,135.78,0,0,0,27.26,53.41,131.3,131.3,0,0,0,12,12.65,422,422,0,0,1-17.89-46.1,116.24,116.24,0,0,1-8.51-23.23,122.67,122.67,0,0,1-2.68-46.42.52.52,0,0,1,0-.42,26.83,26.83,0,0,1,.47-3,7.17,7.17,0,0,1,.19-1.41c.06-.29.13-.58.19-.87,8.55-47.37,44.82-88.29,95.6-101.23C181,72.25,250.74,112.51,267.82,179.57c9.86,38.73,0,78.12-23.33,107.81a62,62,0,0,1-4.73,5.57l-1.24,1.55-34.45,41.68a144.14,144.14,0,0,0,34.08-22.75c.13,0,.22-.19.45-.38a.43.43,0,0,0,.22-.2l.1-.16a119.54,119.54,0,0,0,12.3-12.83l4.31-5.05,0-.13a115.79,115.79,0,0,0,9.79-14.1l.29-.48a141.25,141.25,0,0,0,15.21-36.79,136.81,136.81,0,0,0-.14-67C261.73,102.06,184.86,57.6,108.83,77Z"/><path class="cls-7" d="M597.77,57a120.29,120.29,0,0,0-11-8.81c-45.85-32-110.39-24.86-147.48,20.36l-.13,0-1.24,1.55L404.3,111.22l-48.17,58.56-7.82,9.5L265.57,280.1a141.25,141.25,0,0,0,15.21-36.79C329.49,183.12,413.65,78.79,427.15,61.56,446.3,37,482.63,8.11,530.57,15.15l.13,0A190.42,190.42,0,0,1,597.77,57Z"/><polygon class="cls-7" points="255.49 294.68 255.53 294.81 251.22 299.86 123.62 452.94 116.9 441.54 204.07 336.18 238.52 294.5 239.76 292.95 244.49 287.38 255.49 294.68"/><polygon class="cls-7" points="20.14 281.93 61.67 348.57 44.69 312.46 20.14 281.93"/></g></g></svg>