<svg width="580" height="413" viewBox="0 0 580 413" fill="none" xmlns="http://www.w3.org/2000/svg">
<g clip-path="url(#clip0_1207_99)">
<path d="M111.883 71.263L-0.321899 146.318L110.194 311.535L222.398 236.48L111.883 71.263Z" fill="#F5F5F5"/>
<path d="M164.42 228.659L163.146 236.54L107.368 228.505L108.641 220.624L164.42 228.659Z" fill="#E0E0E0"/>
<path d="M136.329 200.546L144.333 201.7L135.459 256.617L127.454 255.465L136.329 200.546Z" fill="#E0E0E0"/>
<path d="M84.952 130.745C85.032 130.865 73.787 138.526 59.84 147.855C45.888 157.187 34.516 164.653 34.436 164.533C34.356 164.414 45.598 156.754 59.551 147.422C73.498 138.093 84.872 130.626 84.952 130.745Z" fill="#E0E0E0"/>
<path d="M126.216 120.387C126.296 120.507 107.597 133.154 84.457 148.631C61.308 164.114 42.484 176.565 42.404 176.445C42.324 176.326 61.019 163.681 84.167 148.198C107.307 132.721 126.136 120.268 126.216 120.387Z" fill="#E0E0E0"/>
<path d="M134.487 132.753C134.567 132.873 115.868 145.52 92.728 160.997C69.579 176.48 50.755 188.931 50.675 188.811C50.595 188.691 69.29 176.047 92.438 160.564C115.579 145.087 134.407 132.634 134.487 132.753Z" fill="#E0E0E0"/>
<path d="M142.758 145.12C142.838 145.24 124.139 157.887 100.999 173.364C77.85 188.847 59.026 201.298 58.946 201.178C58.866 201.059 77.561 188.414 100.709 172.931C123.85 157.453 142.678 145 142.758 145.12Z" fill="#E0E0E0"/>
<path d="M151.03 157.486C151.11 157.606 132.411 170.252 109.271 185.73C86.122 201.213 67.298 213.664 67.218 213.544C67.138 213.424 85.833 200.78 108.981 185.297C132.121 169.82 150.95 157.367 151.03 157.486Z" fill="#E0E0E0"/>
<path d="M487.079 181.976L392.846 245.009L485.661 383.763L579.893 320.73L487.079 181.976Z" fill="#F5F5F5"/>
<path d="M531.199 314.18L530.13 320.798L483.285 314.049L484.355 307.431L531.199 314.18Z" fill="#E0E0E0"/>
<path d="M507.608 290.569L514.33 291.538L506.877 337.659L500.155 336.691L507.608 290.569Z" fill="#E0E0E0"/>
<path d="M464.46 231.948C464.54 232.068 455.107 238.517 443.393 246.352C431.675 254.189 422.115 260.444 422.035 260.324C421.955 260.204 431.386 253.756 443.104 245.919C454.817 238.085 464.38 231.829 464.46 231.948Z" fill="#E0E0E0"/>
<path d="M499.114 223.249C499.194 223.369 483.501 234.005 464.067 247.004C444.626 260.007 428.807 270.448 428.727 270.328C428.647 270.208 444.337 259.574 463.778 246.571C483.211 233.573 499.034 223.13 499.114 223.249Z" fill="#E0E0E0"/>
<path d="M506.061 233.635C506.141 233.755 490.448 244.392 471.014 257.39C451.573 270.393 435.754 280.834 435.674 280.714C435.594 280.594 451.284 269.96 470.725 256.957C490.158 243.958 505.981 233.515 506.061 233.635Z" fill="#E0E0E0"/>
<path d="M513.007 244.02C513.087 244.14 497.394 254.776 477.96 267.775C458.519 280.778 442.7 291.219 442.62 291.099C442.54 290.98 458.23 280.345 477.671 267.342C497.104 254.344 512.927 243.901 513.007 244.02Z" fill="#E0E0E0"/>
<path d="M519.954 254.406C520.034 254.526 504.341 265.162 484.907 278.161C465.466 291.164 449.647 301.605 449.567 301.485C449.487 301.366 465.177 290.731 484.618 277.728C504.051 264.73 519.874 254.286 519.954 254.406Z" fill="#E0E0E0"/>
<path d="M337.99 77.3282L235.172 22.3396L154.203 173.735L257.021 228.724L337.99 77.3282Z" fill="#F5F5F5"/>
<path d="M239.422 181.368L232.899 183.602L216.341 137.828L222.865 135.594L239.422 181.368Z" fill="#E0E0E0"/>
<path d="M249.423 148.529L251.8 155.098L206.34 170.667L203.964 164.098L249.423 148.529Z" fill="#E0E0E0"/>
<path d="M281.724 80.993C281.643 81.144 271.215 75.723 258.434 68.888C245.649 62.05 235.353 56.387 235.434 56.236C235.515 56.086 245.941 61.505 258.726 68.342C271.507 75.178 281.805 80.843 281.724 80.993Z" fill="#E0E0E0"/>
<path d="M306.397 108.227C306.316 108.378 289.057 99.304 267.853 87.964C246.641 76.619 229.516 67.304 229.597 67.153C229.678 67.003 246.933 76.074 268.145 87.419C289.349 98.759 306.478 108.076 306.397 108.227Z" fill="#E0E0E0"/>
<path d="M300.337 119.559C300.256 119.71 282.997 110.636 261.793 99.295C240.581 87.95 223.456 78.635 223.537 78.484C223.618 78.334 240.873 87.405 262.085 98.75C283.289 110.09 300.417 119.408 300.337 119.559Z" fill="#E0E0E0"/>
<path d="M294.276 130.89C294.195 131.041 276.936 121.967 255.732 110.626C234.52 99.282 217.395 89.966 217.476 89.815C217.556 89.664 234.812 98.736 256.024 110.081C277.228 121.422 294.357 130.74 294.276 130.89Z" fill="#E0E0E0"/>
<path d="M288.216 142.222C288.135 142.373 270.877 133.299 249.672 121.958C228.46 110.614 211.335 101.298 211.416 101.147C211.497 100.997 228.752 110.068 249.964 121.413C271.168 132.754 288.296 142.072 288.216 142.222Z" fill="#E0E0E0"/>
<path d="M190.958 183.544L155.597 365.343L150.968 389.142L387.031 387.977C397.625 387.925 407.014 378.518 410.423 364.542L452.282 192.905C454.869 182.295 449.192 171.26 441.149 171.269L202.226 171.52C196.951 171.527 192.339 176.449 190.958 183.544Z" fill="#7D7D7D"/>
<g opacity="0.5">
<path d="M190.958 183.544L155.597 365.343L150.968 389.142L387.031 387.977C397.625 387.925 407.014 378.518 410.423 364.542L452.282 192.905C454.869 182.295 449.192 171.26 441.149 171.269L202.226 171.52C196.951 171.527 192.339 176.449 190.958 183.544Z" fill="#9E9E9E"/>
</g>
<path d="M364.387 353.026L339.393 151.618C338.369 143.365 331.795 137.209 324.033 137.235L269.227 137.414C265.171 137.427 261.282 139.152 258.4 142.215L232.375 169.88L79.949 170.675C70.634 170.724 63.478 179.537 64.713 189.44L87.919 375.593C88.946 383.834 95.508 389.982 103.259 389.966L368.906 389.441C398.493 390.054 401.317 381.316 401.317 381.316C367.41 388.831 364.39 353.049 364.387 353.026Z" fill="#7D7D7D"/>
<g opacity="0.5">
<path d="M249.842 312.717L240.883 322.339L171.88 260.264L180.84 250.642L249.842 312.717Z" fill="white"/>
<path d="M237.128 248.509L247.03 257.416L184.595 324.473L174.693 315.565L237.128 248.509Z" fill="white"/>
</g>
<path d="M402.32 52.785C401.681 52.511 401.222 51.89 401.189 51.149L400.79 41.865C400.764 41.281 401.014 40.719 401.464 40.347C401.914 39.974 402.513 39.835 403.082 39.969C404.574 40.321 406.22 39.996 407.597 39.077C408.865 38.231 409.716 36.985 409.931 35.658C410.147 34.336 409.738 32.873 408.809 31.643C407.814 30.326 406.344 29.439 404.868 29.27C401.857 28.923 398.606 31.23 397.769 34.308C397.499 35.302 396.474 35.89 395.48 35.619C394.469 35.341 393.898 34.323 394.168 33.329C395.482 28.491 400.474 25.007 405.296 25.562C407.796 25.85 410.165 27.246 411.785 29.392C413.327 31.432 413.993 33.934 413.614 36.258C413.232 38.603 411.794 40.761 409.668 42.18C408.132 43.205 406.37 43.771 404.608 43.832L404.918 50.988C404.962 52.018 404.163 52.888 403.133 52.932C402.845 52.945 402.569 52.891 402.32 52.785Z" fill="#7D7D7D"/>
<path d="M405.055 56.577C405.113 57.418 404.478 58.147 403.637 58.204C402.796 58.262 402.067 57.627 402.009 56.786C401.951 55.945 402.586 55.216 403.427 55.158C404.268 55.1 404.997 55.736 405.055 56.577Z" fill="#7D7D7D"/>
<path d="M370.186 39.694C370.198 39.694 370.229 39.488 370.276 39.085C370.323 38.65 370.389 38.058 370.472 37.297C370.517 36.506 370.719 35.55 370.956 34.423C371.088 33.863 371.156 33.24 371.361 32.61C371.556 31.976 371.763 31.303 371.981 30.591C372.949 27.783 374.442 24.415 376.954 21.065C379.448 17.722 382.955 14.419 387.456 11.917C389.673 10.595 392.208 9.674 394.866 8.861C397.565 8.222 400.426 7.674 403.415 7.745C404.91 7.665 406.417 7.884 407.953 8.013C408.72 8.086 409.475 8.291 410.246 8.425C411.017 8.567 411.792 8.718 412.547 8.98C415.634 9.772 418.633 11.228 421.491 13.033C427.228 16.642 432.059 22.514 434.709 29.632C436.038 33.193 436.674 37.097 436.669 41.04C436.748 44.991 435.983 49.004 434.577 52.782L434.126 53.924L434.067 54.075L434.128 54.216C436.636 59.993 439.096 65.659 441.479 71.149L441.9 70.671C436.736 68.687 431.728 66.763 426.924 64.917L426.739 64.846L426.594 64.987C422.439 69.013 417.476 71.734 412.452 73.152C407.412 74.573 402.336 74.646 397.719 73.825C393.092 73.006 388.926 71.236 385.452 68.961C381.968 66.686 379.174 63.92 377.02 61.109C374.882 58.267 373.474 55.353 372.41 52.75C371.474 50.09 370.9 47.729 370.622 45.775C370.504 44.799 370.399 43.931 370.308 43.174C370.288 42.426 370.272 41.79 370.258 41.263C370.242 40.772 370.229 40.384 370.219 40.092C370.207 39.829 370.196 39.694 370.186 39.694C370.177 39.694 370.169 39.827 370.162 40.091C370.158 40.384 370.153 40.771 370.147 41.265C370.146 41.794 370.144 42.435 370.144 43.187C370.221 43.95 370.309 44.825 370.409 45.809C370.655 47.782 371.201 50.172 372.118 52.871C373.162 55.512 374.561 58.475 376.703 61.371C378.861 64.236 381.674 67.06 385.195 69.39C388.706 71.72 392.927 73.541 397.624 74.395C402.31 75.249 407.471 75.196 412.604 73.766C417.722 72.34 422.786 69.581 427.03 65.485L426.699 65.555C431.501 67.408 436.504 69.34 441.667 71.332L442.422 71.623L442.089 70.854C439.708 65.362 437.252 59.695 434.747 53.917L434.749 54.208L435.21 53.041C436.648 49.18 437.427 45.075 437.346 41.037C437.349 37.007 436.693 33.016 435.331 29.379C432.616 22.108 427.673 16.133 421.821 12.471C418.906 10.639 415.847 9.169 412.704 8.371C411.935 8.108 411.146 7.957 410.362 7.815C409.578 7.681 408.809 7.476 408.029 7.404C406.468 7.279 404.935 7.064 403.417 7.151C400.379 7.093 397.473 7.661 394.737 8.326C392.041 9.165 389.474 10.116 387.232 11.47C382.681 14.037 379.151 17.412 376.656 20.819C374.142 24.232 372.669 27.655 371.732 30.501C371.522 31.222 371.323 31.905 371.137 32.546C370.94 33.184 370.881 33.813 370.759 34.379C370.542 35.519 370.36 36.483 370.337 37.28C370.282 38.045 370.239 38.643 370.207 39.08C370.182 39.486 370.175 39.693 370.186 39.694Z" fill="#3C3C3C"/>
</g>
<defs>
<clipPath id="clip0_1207_99">
<rect width="580" height="413" fill="white"/>
</clipPath>
</defs>
</svg>
