<svg width="65" height="41" viewBox="0 0 65 41" fill="none" xmlns="http://www.w3.org/2000/svg">
<path d="M17.9731 40.673C16.5561 40.6716 15.174 40.2339 14.0145 39.4195C12.8549 38.6051 11.9743 37.4534 11.4921 36.121H4.12408C3.27712 36.1117 2.45306 35.8449 1.76139 35.356C1.06973 34.8671 0.543208 34.1793 0.251806 33.384C-0.0395958 32.5887 -0.082084 31.7235 0.129987 30.9035C0.342059 30.0834 0.798648 29.3474 1.43908 28.793C2.56816 27.8331 3.47449 26.6386 4.09499 25.2928C4.7155 23.9469 5.03528 22.482 5.03208 21V16.278C5.03192 13.2512 6.0922 10.32 8.02867 7.99364C9.96514 5.66731 12.6554 4.09293 15.6321 3.54404V1.98504L15.6601 1.85804C15.7783 1.3322 16.0715 0.862057 16.4916 0.524531C16.9118 0.187006 17.4341 0.00208878 17.9731 3.8518e-05C18.5134 -0.00305243 19.0383 0.179971 19.4595 0.518339C19.8807 0.856707 20.1726 1.32979 20.2861 1.85804L20.3141 1.98504V3.54504C23.2904 4.09426 25.9803 5.6686 27.9167 7.99464C29.8531 10.3207 30.9136 13.2515 30.9141 16.278V20.994C30.91 22.4708 31.2267 23.9309 31.8422 25.2733C32.4578 26.6157 33.3574 27.8084 34.4791 28.769C35.1271 29.3185 35.5919 30.0528 35.8113 30.8737C36.0306 31.6946 35.994 32.5629 35.7063 33.3624C35.4187 34.1619 34.8938 34.8544 34.2018 35.3474C33.5098 35.8404 32.6837 36.1104 31.8341 36.121H24.4561C23.9712 37.4521 23.0896 38.6022 21.9302 39.4163C20.7709 40.2303 19.3897 40.669 17.9731 40.673ZM4.14608 33.721H13.3751L13.5751 34.681C13.7843 35.6934 14.3362 36.6026 15.1377 37.2554C15.9393 37.9082 16.9414 38.2646 17.9751 38.2646C19.0088 38.2646 20.0109 37.9082 20.8124 37.2554C21.6139 36.6026 22.1658 35.6934 22.3751 34.681L22.5751 33.721H31.8151C32.1746 33.714 32.5235 33.5976 32.8153 33.3874C33.1072 33.1772 33.328 32.8831 33.4487 32.5443C33.5693 32.2055 33.5839 31.838 33.4905 31.4907C33.3972 31.1434 33.2003 30.8327 32.9261 30.6L32.9201 30.595C31.5343 29.4094 30.4225 27.9369 29.6618 26.2794C28.9011 24.6218 28.5095 22.8188 28.5141 20.995V16.278C28.5246 13.6562 27.5538 11.1253 25.7927 9.18294C24.0315 7.24063 21.6074 6.02747 18.9971 5.78204L17.9771 5.68204L16.9501 5.78204C14.3389 6.0273 11.9139 7.24092 10.1525 9.18411C8.39104 11.1273 7.42059 13.6593 7.43208 16.282V20.998C7.43621 22.8266 7.04227 24.6342 6.27762 26.2953C5.51297 27.9563 4.39594 29.4311 3.00408 30.617C2.73356 30.853 2.54103 31.1655 2.45196 31.5132C2.36289 31.861 2.38146 32.2276 2.50523 32.5645C2.629 32.9015 2.85213 33.1929 3.14512 33.4003C3.43811 33.6077 3.78715 33.7213 4.14608 33.726V33.721Z" fill="#252849"/>
<path d="M53.7677 27.345C53.5697 27.3455 53.3736 27.3067 53.1906 27.231C53.0077 27.1554 52.8415 27.0442 52.7017 26.904L43.4427 17.644C43.1599 17.3611 43.001 16.9775 43.001 16.5775C43.001 16.1775 43.1599 15.7938 43.4427 15.511C43.7256 15.2281 44.1092 15.0692 44.5092 15.0692C44.9093 15.0692 45.2929 15.2281 45.5757 15.511L53.7687 23.704L61.9617 15.511C62.2457 15.2335 62.6276 15.0791 63.0246 15.0814C63.4216 15.0838 63.8017 15.2426 64.0823 15.5234C64.363 15.8042 64.5216 16.1843 64.5238 16.5813C64.5259 16.9783 64.3714 17.3602 64.0937 17.644L54.8347 26.904C54.6948 27.0443 54.5285 27.1555 54.3454 27.2312C54.1622 27.3069 53.9659 27.3456 53.7677 27.345Z" fill="#252849"/>
</svg>
