<svg width="64" height="64" viewBox="0 0 64 64" fill="none" xmlns="http://www.w3.org/2000/svg">
<path d="M23.3305 23.7C29.4167 23.7 34.3505 18.8423 34.3505 12.85C34.3505 6.85771 29.4167 2 23.3305 2C17.2444 2 12.3105 6.85771 12.3105 12.85C12.3105 18.8423 17.2444 23.7 23.3305 23.7Z" fill="#032E72"/>
<path d="M30.4295 30.3199C31.0395 29.8699 31.6795 29.4599 32.3395 29.0799C29.6495 27.4899 26.5595 26.6299 23.3995 26.6299H23.2695C13.5695 26.6299 5.68945 34.5199 5.68945 44.2199V45.3199C5.68945 45.8799 6.13945 46.3199 6.68945 46.3199H22.8495C22.8495 45.9899 22.8295 45.6599 22.8295 45.3299C22.8295 44.9999 22.8395 44.6499 22.8495 44.3199C23.1595 38.5899 26.0695 33.5399 30.4295 30.3199Z" fill="#032E72"/>
<path d="M41.5701 28.6599C32.3401 28.6599 24.8301 36.1399 24.8301 45.3299C24.8301 54.5199 32.3401 61.9999 41.5701 61.9999C50.8001 61.9999 58.3101 54.5199 58.3101 45.3299C58.3101 36.1399 50.8001 28.6599 41.5701 28.6599ZM51.5001 42.4299L49.9601 50.5199C49.8701 50.9999 49.4601 51.3399 48.9801 51.3399H34.1601C33.6801 51.3399 33.2701 50.9999 33.1801 50.5199L31.6401 42.4299C31.5701 42.0599 31.7101 41.6899 32.0001 41.4599C32.2901 41.2199 32.6901 41.1799 33.0301 41.3299L37.7301 43.4199L40.8001 39.6799C41.1801 39.2199 41.9601 39.2199 42.3401 39.6799L45.4101 43.4199L50.1101 41.3299C50.4501 41.1799 50.8501 41.2299 51.1401 41.4599C51.4301 41.6899 51.5701 42.0599 51.5001 42.4299Z" fill="#00BAFF"/>
</svg>
