<svg width="23" height="23" viewBox="0 0 23 23" fill="none" xmlns="http://www.w3.org/2000/svg">
<path d="M21.7681 20.9519L16.6551 15.8389C18.1814 14.0829 18.9663 11.803 18.8445 9.47962C18.7227 7.15623 17.7036 4.97089 16.002 3.3842C14.3004 1.7975 12.0493 0.933403 9.72309 0.974026C7.39687 1.01465 5.17727 1.95682 3.53214 3.60196C1.887 5.2471 0.944826 7.46669 0.904202 9.79291C0.863579 12.1191 1.72768 14.3703 3.31437 16.0718C4.90107 17.7734 7.08641 18.7925 9.40979 18.9143C11.7332 19.0362 14.0131 18.2512 15.7691 16.7249L20.8821 21.8379C20.9996 21.9556 21.1587 22.0224 21.3251 22.0239C21.4076 22.0242 21.4894 22.0079 21.5655 21.9759C21.6416 21.944 21.7105 21.897 21.7681 21.8379C21.8845 21.7198 21.9497 21.5607 21.9497 21.3949C21.9497 21.2291 21.8845 21.0699 21.7681 20.9519ZM2.17605 9.95788C2.17605 8.43259 2.62836 6.94155 3.47576 5.67332C4.32317 4.40509 5.52762 3.41662 6.9368 2.83292C8.34598 2.24922 9.89661 2.09649 11.3926 2.39406C12.8886 2.69163 14.2627 3.42613 15.3413 4.50467C16.4198 5.58321 17.1543 6.95736 17.4519 8.45334C17.7494 9.94932 17.5967 11.4999 17.013 12.9091C16.4293 14.3183 15.4408 15.5228 14.1726 16.3702C12.9044 17.2176 11.4133 17.6699 9.88805 17.6699C7.84271 17.6699 5.88113 16.8574 4.43485 15.4111C2.98857 13.9648 2.17605 12.0032 2.17605 9.95788Z" fill="black" stroke="black"/>
</svg>
