<svg width="54" height="54" viewBox="0 0 54 54" fill="none" xmlns="http://www.w3.org/2000/svg">
<path d="M27 54C41.9117 54 54 41.9117 54 27C54 12.0883 41.9117 0 27 0C12.0883 0 0 12.0883 0 27C0 41.9117 12.0883 54 27 54Z" fill="#F94515"/>
<path fill-rule="evenodd" clip-rule="evenodd" d="M36.4249 15.835C35.7359 16.065 30.3029 17.845 24.3519 19.789C16.5029 22.353 13.4979 23.355 13.4089 23.437C13.3239 23.5197 13.2563 23.6187 13.2101 23.728C13.1639 23.8373 13.1401 23.9548 13.1401 24.0735C13.1401 24.1921 13.1639 24.3096 13.2101 24.4189C13.2563 24.5283 13.3239 24.6272 13.4089 24.71C13.5089 24.801 21.7309 29.435 22.1839 29.674C22.5589 29.867 24.0989 28.693 24.7209 28.223C24.9269 28.067 25.4509 27.676 25.8849 27.355L28.7929 25.946L26.6599 28.51C26.4219 28.833 26.0309 29.357 25.7919 29.674C25.1579 30.516 23.9599 31.397 24.1709 31.804C24.4039 32.26 29.4119 40.704 29.5029 40.804C29.5862 40.8887 29.6855 40.9558 29.7952 41.0015C29.9048 41.0472 30.0224 41.0704 30.1412 41.0699C30.26 41.0693 30.3774 41.045 30.4866 40.9983C30.5958 40.9516 30.6945 40.8835 30.7769 40.798C30.9899 40.569 38.8209 16.498 38.7959 16.151C38.7329 15.288 38.2599 15.222 36.4249 15.835Z" fill="white"/>
</svg>
