<svg width="37" height="37" viewBox="0 0 37 37" fill="none" xmlns="http://www.w3.org/2000/svg">
<path fill-rule="evenodd" clip-rule="evenodd" d="M16.2837 0.0591533C11.924 0.484079 7.86794 2.48138 4.87308 5.67806C1.87823 8.87473 0.149325 13.0522 0.00923201 17.4304C-0.130861 21.8085 1.32744 26.088 4.1118 29.4696C6.89616 32.8512 10.8162 35.1037 15.1398 35.8065C19.4635 36.5093 23.8951 35.6143 27.6072 33.2886C31.3192 30.9629 34.0578 27.3657 35.3116 23.1685C36.5653 18.9714 36.2485 14.4614 34.4203 10.4807C32.5921 6.5001 29.3774 3.32101 25.3767 1.53715C22.5075 0.324415 19.3893 -0.18243 16.2837 0.0591533ZM19.4447 5.60415C20.7382 5.9148 21.8889 6.65295 22.7106 7.69908C23.5323 8.74522 23.9769 10.0381 23.9723 11.3683C23.9676 12.6986 23.5141 13.9883 22.6852 15.0288C21.8563 16.0692 20.7004 16.7993 19.4048 17.101C18.1092 17.4026 16.7497 17.2581 15.5464 16.6909C14.3432 16.1236 13.3666 15.1668 12.7749 13.9754C12.1831 12.784 12.0109 11.4277 12.286 10.1262C12.5611 8.82474 13.2675 7.6542 14.2907 6.80415C14.9973 6.21714 15.8311 5.80303 16.7258 5.59472C17.6205 5.3864 18.5515 5.38963 19.4447 5.60415ZM22.5327 20.3182C26.5687 20.9732 29.0327 26.1322 26.3387 28.2822C24.0072 30.1696 21.1018 31.2058 18.102 31.2196C15.1023 31.2334 12.1875 30.2241 9.8387 28.3582C9.32565 28.0088 8.93822 27.5041 8.73337 26.9182C8.52852 26.3322 8.51707 25.6961 8.7007 25.1032C8.94138 23.9228 9.52534 22.8398 10.3793 21.9901C11.2332 21.1404 12.3191 20.5619 13.5007 20.3272C14.0367 20.2372 21.9887 20.2342 22.5367 20.3272" fill="white"/>
</svg>
